<?xml version="1.0" encoding="utf-8"?>
<!-- Generator: Adobe Illustrator 27.5.0, SVG Export Plug-In . SVG Version: 6.00 Build 0)  -->
<svg version="1.1" id="Layer_1" xmlns="http://www.w3.org/2000/svg" xmlns:xlink="http://www.w3.org/1999/xlink" x="0px" y="0px"
	 viewBox="0 0 313.6 132.5" style="enable-background:new 0 0 313.6 132.5;" xml:space="preserve">
<style type="text/css">
	.st0{fill:#062C36;}
</style>
<g>
	<g>
		<g>
			<path class="st0" d="M34.2,116.1c-2.4,0.9-7.1,2.1-12.1,2.1c-6.4,0-11.3-1.6-14.8-5C3.9,110,2,105,2,99.3
				c0.1-12,8.5-19.6,21-19.6c4.6,0,8.3,1,10,1.8l-1.5,5.5c-2.1-1-4.6-1.6-8.6-1.6c-8.1,0-13.7,4.8-13.7,13.5
				c0,8.6,5.3,13.7,13.1,13.7c2.5,0,4.3-0.3,5.2-0.7v-9.5h-6.7V97h13.3V116.1z"/>
			<path class="st0" d="M41.4,99.4c0-3.7-0.1-6.4-0.2-8.8h5.9l0.3,5.2h0.2c1.3-3.8,4.5-5.8,7.5-5.8c0.7,0,1.1,0.1,1.6,0.2v6.4
				c-0.6-0.1-1.2-0.2-2.1-0.2c-3.2,0-5.5,2.1-6.2,5.2c-0.1,0.6-0.2,1.3-0.2,2.1v14.2h-6.9V99.4z"/>
			<path class="st0" d="M87,104c0,10-7.1,14.5-14,14.5c-7.7,0-13.7-5.3-13.7-14.1c0-9,5.9-14.4,14.1-14.4C81.6,90,87,95.7,87,104z
				 M66.5,104.3c0,5.3,2.6,9.2,6.8,9.2c3.9,0,6.7-3.8,6.7-9.3c0-4.3-1.9-9.2-6.6-9.2C68.4,95,66.5,99.7,66.5,104.3z"/>
			<path class="st0" d="M115.7,109.7c0,3.2,0.1,5.9,0.2,8.2h-6l-0.3-4.1h-0.2c-1.2,1.9-3.9,4.7-8.8,4.7c-4.9,0-9.5-3-9.5-11.9v-16
				h6.9v14.8c0,4.5,1.5,7.4,5.1,7.4c2.8,0,4.6-1.9,5.3-3.7c0.3-0.6,0.4-1.3,0.4-2.1V90.6h6.9V109.7z"/>
			<path class="st0" d="M122.6,99.7c0-3.6-0.1-6.5-0.2-9.1h6l0.3,4.2h0.1c2-3.1,5.2-4.8,9.3-4.8c6.3,0,11.5,5.4,11.5,13.9
				c0,9.9-6.2,14.6-12.4,14.6c-3.4,0-6.3-1.5-7.7-3.6h-0.1v14.1h-6.9V99.7z M129.5,106.4c0,0.7,0.1,1.3,0.2,1.9
				c0.7,2.8,3.1,4.8,6.1,4.8c4.4,0,6.9-3.6,6.9-9c0-4.8-2.4-8.7-6.8-8.7c-2.9,0-5.5,2.1-6.2,5.1c-0.1,0.6-0.2,1.2-0.2,1.7V106.4z"/>
			<path class="st0" d="M159.7,106.2c0.2,4.9,4,7.1,8.4,7.1c3.2,0,5.4-0.5,7.6-1.2l1,4.7c-2.4,1-5.6,1.7-9.5,1.7
				c-8.8,0-14.1-5.4-14.1-13.8c0-7.6,4.6-14.7,13.3-14.7c8.8,0,11.8,7.3,11.8,13.3c0,1.3-0.1,2.3-0.2,2.9H159.7z M171.6,101.3
				c0.1-2.5-1.1-6.7-5.7-6.7c-4.3,0-6,3.9-6.3,6.7H171.6z"/>
			<path class="st0" d="M227.2,78.1h6.9v39.7h-6.9V78.1z"/>
			<path class="st0" d="M249.7,83.6v7h6.6v5.2h-6.6v12c0,3.4,0.9,5,3.5,5c1.2,0,1.9-0.1,2.7-0.3l0.1,5.2c-1,0.4-2.9,0.7-5,0.7
				c-2.6,0-4.6-0.8-5.9-2.2c-1.5-1.6-2.2-4.1-2.2-7.7V95.7h-3.9v-5.2h3.9v-5.1L249.7,83.6z"/>
			<path class="st0" d="M286.2,109.7c0,3.2,0.1,5.9,0.2,8.2h-6l-0.3-4.1h-0.2c-1.2,1.9-3.9,4.7-8.8,4.7c-4.9,0-9.5-3-9.5-11.9v-16
				h6.9v14.8c0,4.5,1.5,7.4,5.1,7.4c2.8,0,4.6-1.9,5.3-3.7c0.3-0.6,0.4-1.3,0.4-2.1V90.6h6.9V109.7z"/>
			<path class="st0" d="M293.6,111.5c1.5,1,4.5,2,6.9,2c3,0,4.4-1.3,4.4-3.1c0-1.8-1.1-2.7-4.5-4c-5.3-1.8-7.5-4.7-7.5-7.9
				c0-4.8,4-8.5,10.3-8.5c3,0,5.7,0.7,7.3,1.6l-1.4,4.8c-1.1-0.7-3.4-1.6-5.8-1.6c-2.5,0-3.8,1.2-3.8,2.9c0,1.7,1.3,2.5,4.8,3.8
				c5,1.7,7.2,4.3,7.3,8.3c0,5-3.9,8.6-11.1,8.6c-3.3,0-6.3-0.8-8.3-1.9L293.6,111.5z"/>
		</g>
		<path class="st0" d="M156.3,3.6l-8.2,7.1l-25.9,22.7h68.1L156.3,3.6z M190.4,33.5c-2.9,0.1-17.3,1-27.5,4.1
			c-16.8,5.1-17.1,13.5-16.8,16.5h53h14.8L190.4,33.5z M122.2,33.4l-9.6,8.4l-14,12.4l18.2,0l29.4,0l-0.1,0L122.2,33.4z"/>
	</g>
	<path class="st0" d="M199.1,80.1h8.5l14.8,37.7H214l-3.2-8.6h-15.3l-3.3,8.6h-7.8L199.1,80.1z M203.2,87.7L203.2,87.7l-5.6,15.6h11
		L203.2,87.7z"/>
</g>
</svg>
